<?xml version="1.0" encoding="UTF-8" standalone="no"?>
<svg
        xmlns:dc="http://purl.org/dc/elements/1.1/"
        xmlns:cc="http://creativecommons.org/ns#"
        xmlns:rdf="http://www.w3.org/1999/02/22-rdf-syntax-ns#"
        xmlns:svg="http://www.w3.org/2000/svg"
        xmlns="http://www.w3.org/2000/svg"
        xmlns:sodipodi="http://sodipodi.sourceforge.net/DTD/sodipodi-0.dtd"
        xmlns:inkscape="http://www.inkscape.org/namespaces/inkscape"
        version="1.1"
        id="Calque_1"
        x="0px"
        y="0px"
        viewBox="0 0 1302.5 909.8"
        style="enable-background:new 0 0 1302.5 909.8;"
        xml:space="preserve"
        sodipodi:docname="Born 2 Play-01.svgz"><metadata
   id="metadata229"><rdf:RDF><cc:Work
       rdf:about=""><dc:format>image/svg+xml</dc:format><dc:type
        rdf:resource="http://purl.org/dc/dcmitype/StillImage" /></cc:Work></rdf:RDF></metadata><defs
        id="defs227" /><sodipodi:namedview
        pagecolor="#ffffff"
        bordercolor="#666666"
        borderopacity="1"
        objecttolerance="10"
        gridtolerance="10"
        guidetolerance="10"
        inkscape:pageopacity="0"
        inkscape:pageshadow="2"
        inkscape:window-width="640"
        inkscape:window-height="480"
        id="namedview225" />
    <style
            type="text/css"
            id="style2">
	.st0{fill:#FFFFFF;}
	.st1{fill:url(#SVGID_1_);}
	.st2{fill:url(#SVGID_2_);}
	.st3{fill:url(#SVGID_3_);}
	.st4{fill:url(#SVGID_4_);}
	.st5{fill:#386F75;}
	.st6{fill:#11363F;}
	.st7{fill:#FEFEFE;}
	.st8{fill:#FDFDFD;}
	.st9{fill:#FCFBFC;}
	.st10{fill:#FDFCFC;}
	.st11{fill:#E5E5E5;}
	.st12{fill:#C0FCFF;}
	.st13{fill:#0183AC;}
	.st14{fill:#75D6DF;}
	.st15{fill:#2BBED6;}
	.st16{fill:#105666;}
	.st17{fill:#3CB9D6;}
	.st18{opacity:8.000000e-02;fill:#000036;}
</style>
    <g
            id="g222">
	<g
            id="g48">
		<linearGradient
                id="SVGID_1_"
                gradientUnits="userSpaceOnUse"
                x1="566.6982"
                y1="286.6868"
                x2="714.2982"
                y2="530.2867">
			<stop
                    offset="0"
                    style="stop-color:#6D1B2A"
                    id="stop4" />
            <stop
                    offset="0.3184"
                    style="stop-color:#6D1B2A"
                    id="stop6" />
            <stop
                    offset="0.7215"
                    style="stop-color:#B33650"
                    id="stop8" />
            <stop
                    offset="1"
                    style="stop-color:#CE415F"
                    id="stop10" />
		</linearGradient>
        <path
                class="st1"
                d="M826.1,364.7c-0.1,4.8-0.6,10-1.4,15.6c-0.3,2.4-0.8,4.8-1.2,7.3c-0.6,3.4-1.3,7-2.1,10.7    c-0.2,1.2-0.5,2.3-0.7,3.4c-0.6,2.4-1.1,4.6-1.7,6.6c-1.5,5.2-3,9.3-4.4,12.9c-0.8,2.1-1.6,4.1-2.3,6c-1.3,3.8-2.3,7.4-2.7,11.8    c-0.2,1.8-0.2,3.7-0.1,5.8c0.1,3.4,0.5,7.4,1.4,12.1c0.3,1.6,0.6,3.4,1,5.2c0,0,0.1,0.4,0.4,1.1c0.7,2.1,2.4,7,4,13.8    c0.5,2.2,1,4.6,1.5,7.1c0.8,4.6,1.6,9.7,2,15.2c0.2,2.5,0.3,5.1,0.3,7.7c0.1,5.2-0.2,10.6-1,16.1c-0.4,2.6-0.9,5.3-1.5,7.9    c-1.2,5.3-3,10.5-5.4,15.6c-0.3,0.7-0.7,1.4-1.1,2.2c-0.9,1.8-2,3.4-3.1,4.9c-3.7,4.8-8.4,8.1-13.9,10.4c-2.9,1.2-5.9,2.1-9.1,2.8    c-6.7,1.4-13.9,1.7-21.1,1.3c-3.6-0.2-7.3-0.6-10.8-1.1c-7.8-1.1-15.2-2.8-21.3-4.5c-3.9-1-7.2-2.1-9.8-2.9    c-3.9-1.3-6.3-2.2-6.3-2.2s-4.6-2.2-11.3-2.7c-2.1-0.2-4.4-0.2-6.9,0.1c-3.9,0.5-8.2,1.7-12.5,4.2c-1.9,1.1-3.9,2.5-5.8,4.2    c-4.3,3.8-8.4,9.2-12.1,16.7c-1,2-1.9,4.2-2.8,6.5c-1.1,2.9-2.4,5.4-4,7.6c-4.4,6.4-10.5,10.4-17.4,12.7c-2.9,1-6,1.6-9.1,2    c-6,0.7-12.3,0.5-18.5-0.4c-3-0.4-6-1-8.9-1.7c-6.2-1.5-12.1-3.5-17.2-5.8c-2.9-1.3-5.6-2.6-7.9-4c-0.2-0.1-0.4-0.2-0.6-0.3    c-4.8-2.9-9.8-5.5-14.9-7.8c-2.6-1.1-5.2-2.2-7.9-3.2c-2.4-0.9-4.8-1.7-7.3-2.5c-2.9-0.9-5.9-2.2-8.8-4.2    c-2.2-1.5-4.3-3.3-6.2-5.5c-3.3-3.8-6.1-8.7-8.1-15.2c-0.8-2.6-1.5-5.5-2-8.6c-0.3-1.6-0.5-3.3-0.6-5c-0.4-3.9-1.2-7.7-2.5-11.3    c-0.8-2.2-1.7-4.3-2.8-6.4c-2.1-4-4.8-7.7-7.9-10.9c-1.6-1.7-3.3-3.2-5.2-4.6c-4.5-3.4-9.6-6-15.3-7.7c-0.8-0.2-1.5-0.4-2.3-0.6    c-0.3-0.1-0.7-0.2-1.1-0.2c-2.6-0.6-5-1.3-7.3-2.2c-6.2-2.5-11-6.1-14.3-10.5c-1.5-2-2.8-4.2-3.7-6.6c-1.7-4.5-2.2-9.5-1.4-14.8    c0.4-2.4,1-4.9,1.9-7.5c1.8-4.9,4.6-9.9,8.5-14.9c1.8-2.3,3.8-4.5,6-6.8c3-3,6.3-6,10.1-8.8c1.4-1.1,2.8-2.3,4.1-3.5    c1.8-1.7,3.4-3.5,4.9-5.5c2.5-3.3,4.6-6.9,6.2-10.8c0.7-1.7,1.3-3.5,1.8-5.3c1-3.6,1.6-7.4,1.7-11.2c0-0.6,0-1.1,0-1.7    c0-0.6,0-1.2-0.1-1.8c0-0.8-0.1-1.7-0.1-2.5c-0.2-4.1-0.3-8.4-0.2-12.7c0-2.1,0.2-4.3,0.4-6.4c0.4-4.4,1.2-8.8,2.6-13    c0.7-2.1,1.5-4.1,2.5-6c2-3.9,4.6-7.5,8-10.9c1.6-1.5,3.4-3,5.3-4.4c3.6-2.6,7.9-4.9,13.1-6.8c2.2-0.8,4.5-1.6,6.9-2.3    c0.1,0,0.1,0,0.2-0.1c4.7-1.4,9.4-2.9,14-4.5c2.2-0.8,4.3-1.6,6.5-2.4c4.4-1.7,8.6-3.4,12.7-5.2c2.1-0.9,4.1-1.8,6.1-2.7    c4.4-2,8.5-4,12.3-5.9c2.2-1.1,4.2-2.1,6.1-3.2c4.6-2.4,8.5-4.6,11.7-6.4c0.4-0.2,0.7-0.4,1.1-0.6c2.2-1.3,4.4-2.7,6.5-4.2    c1.7-1.2,3.3-2.4,4.9-3.6c2.1-1.6,5.2-3.7,9.2-5.2c2.3-0.9,4.8-1.7,7.7-2.1c4.6-0.8,10-0.8,15.9,0.6c1.3,0.3,2.6,0.7,3.9,1.1    c0,0,1.4,0.5,3.7,1.6c3.2,1.5,8.3,4.1,14.2,8c2,1.3,4.2,2.8,6.4,4.5c1.4,1.1,2.8,2.2,4.2,3.3c2.7,2.3,5.3,4,7.9,5.4    c2.1,1.1,4.2,2,6.2,2.6c5.1,1.5,10,1.8,14.7,1.4c3-0.2,5.9-0.7,8.7-1.2c2.1-0.4,4.2-0.8,6.2-1.1c4.4-0.7,8.8-1.2,13.3-1.5    c3.2-0.2,6.5-0.3,9.7-0.2c4.8,0.1,9.5,0.5,14.3,1.2c1.6,0.2,3.3,0.5,5,0.9c3,0.6,6.1,1.3,9.1,2.2c5.8,1.8,11.5,4.1,16.5,7.4    c2.3,1.5,4.5,3.2,6.5,5.2c1.8,1.7,3.3,3.6,4.7,5.7c1.7,2.6,3.2,5.1,4.4,7.5c1.2,2.4,2.3,4.8,3.2,7.1c1.8,5,2.9,10.1,3.4,15.4    C826.1,359.4,826.1,362,826.1,364.7z"
                id="path13" />
        <linearGradient
                id="SVGID_2_"
                gradientUnits="userSpaceOnUse"
                x1="699.3314"
                y1="206.3228"
                x2="846.9313"
                y2="449.9228">
			<stop
                    offset="0"
                    style="stop-color:#6D1B2A"
                    id="stop15" />
            <stop
                    offset="0.3184"
                    style="stop-color:#6D1B2A"
                    id="stop17" />
            <stop
                    offset="0.7215"
                    style="stop-color:#B33650"
                    id="stop19" />
            <stop
                    offset="1"
                    style="stop-color:#CE415F"
                    id="stop21" />
		</linearGradient>
        <path
                class="st2"
                d="M788.6,292.4c-3.3,4.2-7.2,6.7-13,6.2c-3.6-0.3-6.9-1.1-10.3-2.1c-2.6-0.8-5.1-1.8-7.7-2.8    c-0.1,0-0.2-0.1-0.2-0.1c-6-2.4-12.2-3.5-18.6-1.2c-0.3,0.1-0.6,0.2-1,0.4c-2.3,0.9-4.8,0.9-7.4,0.3c-0.3-0.1-0.6-0.1-0.8-0.2    c-3.8-0.7-7.7-0.2-11.3,1.9c-1.7,1-3.4,2-6.2,2.3c3.4-5.2,7.9-7.7,13.4-8c2.3-0.1,4.5-0.5,6.7-1c2.8-0.7,5.6-1.6,8.2-3    c1.3-0.6,2.5-1.2,3.8-1.6c4.7-1.6,9.6-1.9,14.4-0.4c2.1,0.7,4.2,0.8,6.2,0.7c3.4-0.2,6.6-1.3,9.9-2.6c1.4-0.6,2.8-0.9,4.2-1    c3.1-0.3,6.1,0.6,8.8,3C790.6,285.7,791,289.3,788.6,292.4z"
                id="path24" />
        <linearGradient
                id="SVGID_3_"
                gradientUnits="userSpaceOnUse"
                x1="478.5289"
                y1="340.1095"
                x2="626.1289"
                y2="583.7095">
			<stop
                    offset="0"
                    style="stop-color:#6D1B2A"
                    id="stop26" />
            <stop
                    offset="0.3184"
                    style="stop-color:#6D1B2A"
                    id="stop28" />
            <stop
                    offset="0.7215"
                    style="stop-color:#B33650"
                    id="stop30" />
            <stop
                    offset="1"
                    style="stop-color:#CE415F"
                    id="stop32" />
		</linearGradient>
        <path
                class="st3"
                d="M667,610.3c-2.1,1-3.9,2.3-5.7,3.7c-1.6,1.3-3.2,2.6-4.9,3.7c-4.1,2.8-6.1,7.2-8.4,11.2c-1.7,3-4,5-6.7,6.3    c-1.9,0.9-3.9,1.5-6.2,1.8c-1.6,0.2-3.1-0.3-4.2-1.5c-1.1-1.1-1.9-2.7-1.9-4.6c0.2-2.2,1.4-4.1,3-5.8c0.7-0.7,1.4-1.3,2.1-1.9    c2.4-1.8,5.1-3,8-3.8c0.2-0.1,0.4-0.1,0.6-0.2c3.2-0.8,6.1-2,8.6-4c3-2.4,6.7-3.4,9.7-5.8c0.2-0.2,0.4-0.4,0.7-0.6    c1.4-1.2,3.5-0.7,5.3-0.9c0.5-0.1,1.1,0.3,1.2,0.9C668.3,609.8,667.6,610.1,667,610.3z"
                id="path35" />
        <linearGradient
                id="SVGID_4_"
                gradientUnits="userSpaceOnUse"
                x1="461.7708"
                y1="350.2634"
                x2="609.3708"
                y2="593.8634">
			<stop
                    offset="0"
                    style="stop-color:#6D1B2A"
                    id="stop37" />
            <stop
                    offset="0.3184"
                    style="stop-color:#6D1B2A"
                    id="stop39" />
            <stop
                    offset="0.7215"
                    style="stop-color:#B33650"
                    id="stop41" />
            <stop
                    offset="1"
                    style="stop-color:#CE415F"
                    id="stop43" />
		</linearGradient>
        <path
                class="st4"
                d="M488.7,382c0,0.4,0,0.8,0,1.2c0,0.9-0.2,1.9-0.5,2.9c-0.4,1.1-0.7,2.2-0.9,3.4c-0.8,3.7-0.9,7.6-1.3,11.3    c-0.1,0.5-0.1,1-0.3,1.4c-0.2,0.7-0.7,1.2-1.5,1.2c-1.1,0-1.7-0.9-2-1.8c0-0.1-0.1-0.2-0.1-0.3c-1.5-4.8-3-9.5-4.4-14.3    c-0.5-1.5-0.9-3.1-1.3-4.7c-0.3-1-0.4-2-0.5-3c-0.1-2.2,0.4-4.4,1.8-6.5c2.2-3.3,5.4-3.6,7.9-0.6    C487.9,374.9,488.9,378.2,488.7,382z"
                id="path46" />
	</g>
        <path
                class="st5"
                d="M616.9,289.3l-0.2,0.4c-7.3,2.6-8,5.8-8,6.7l-1,0.3C607.8,296.7,607.1,292.4,616.9,289.3z"
                id="path50" />
        <path
                class="st6"
                d="M616.7,289.7l-2.4,4.5l-2.1,1.3l-3.5,1C608.8,295.5,609.4,292.3,616.7,289.7z"
                id="path52" />
        <path
                class="st7"
                d="M812.7,437.3c-0.7,0.8-1.7,1.1-2.7,1.1c-6.2,0.1-11.5-2.5-16.6-5.8c-2.1-1.3-2.9-3.1-2.8-5.7   c0.3-5.9-1.5-11.5-2.4-17.2c-1.3-8-2.6-15.9-4.5-23.7c-0.4-0.4-0.1-1.1-1-1.5c-1,2.6,0.1,5.4-0.6,8c-0.6,6.2-1.2,12.3-1.7,18.5   l0-0.1c-0.8,4-1.8,8-0.6,12.1c0.1,0.4,0.1,0.9,0.2,1.3c0.5,6.7-2.1,8.5-8.3,6.1c-0.3-0.1-0.7-0.2-1-0.3c-0.7-0.4-1.6-0.5-2.2-1   c-1.7-1-3.5-1.8-5.1-2.9c-2.2-1.4-3.2-4.4-1.9-6.7c0.2-0.4,0.4-0.9,0.5-1.3c1-2.8,2-5.7,2.5-8.7c1.8-10.8,2.7-21.6,2.7-32.5   c0.1-9.2-0.9-18.2-2.3-27.2c-0.8-4.9-1.4-10-3.5-14.6c-1.1-2.5,0.2-5.6,2.8-7.4l-0.1,0c3.6-0.8,6.9,0.4,10.2,1.4   c1.8,0.5,3.6,1.1,5.3,1.9c1.7,0.8,3.2,2,4.3,3.6c1.3,1.9,2.1,4.1,3,6.2c4.4,10,6.8,20.7,9.3,31.3c0.9,3.9,2,7.7,2.4,10.7   c0.1-3.8-0.6-8.6-0.6-13.4c-0.2-10.8-0.7-21.6-2.4-32.4c-0.4-2.8,1.4-5.4,4.2-5.9c2.6-0.5,5.3-0.5,7.6,1.2c0.6,0.5,1.4,0.4,2.1,0.6   c3.4,0.8,5.7,3.6,5.2,6.9c-1,7.6,0.4,15.2,0.4,22.8c0,2.2-0.6,4.3-0.5,6.5c0.4,6.4-0.3,12.8,0.7,19.2c0.7,4.1,0.5,8.4-0.3,12.5   c-0.3,1.7-0.6,3.5-0.6,5.3c-0.4,8.3-0.9,16.6-0.3,24.9C814,433.3,814.1,435.6,812.7,437.3z"
                id="path54" />
        <path
                class="st7"
                d="M768.9,540.4c-0.8-2.5-1.5-5-1.9-7.6c-0.2-1.5-0.5-3-0.9-4.4c-1.2-4.9-1.8-9.8-2.7-14.7   c-2.8-16.8-6.4-33.6-5.8-50.8c0.1-1.7-1.2-2.3-2.4-3c-7.8-4.3-16.1-6.9-25-8.1c-2.6-0.3-4,0.8-4.3,3.3c-0.3,2.3-1.2,4.3-2.5,6.2   c-3.2,5.1-6.4,10.3-9.1,15.7c-0.5,0.6-0.5,1.5-1.2,2.1c-2.2,4.8-4.6,9.5-6.2,14.5c-1.1,3.6-2.8,6.1-6.7,7.2c-3.8,1.1-4.2,3.2-1.6,6   c1.5,1.6,1.2,2.9,0.5,4.6c-1.7,4.1-3.3,8.3-4.8,12.4c-0.8,2-0.2,3.5,1.8,4.5c2.6,1.4,5.2,2.9,7.8,4.3c1.8,0.7,3.7,1.5,5.5,2.2   c1.2,0.4,2.5,0.4,3.7-0.1c2.9-1.3,1.9-4.2,3.5-6c1.9-1.8,2.8-4.2,3.7-6.6c0.8-2.4,2.4-3.4,4.8-3.8c5.4-0.9,10.8-1.2,16.2-1   c3.2,0.1,3.6,0.4,4.4,3.6c0.6,2.4,0.5,5.1,2.1,7.2c0.2,0.7,0.5,1.4,0.5,2.1c-0.1,7.2,3.5,12.3,9.1,16.2c1.3,0.9,2.5,1.9,3.8,2.8   c0.2,0.1,0.4,0.3,0.6,0.5c0.8,0.5,1.7,0.7,2.4,1.5c0.4,0.2,0.8,0.4,1.2,0.6c3.2,1.5,3.7,1.2,4.3-2.4   C770.1,546.4,769.9,543.4,768.9,540.4z M739,498.9c-3.2-0.1-6.3,0-9.5,0.1c-1.2,0-2-0.1-1.5-1.7c2.3-7,5.5-13.6,9.6-19.8   c0.1-0.1,0.3-0.1,0.8-0.2c0.1,2.4,0.2,4.7,0.4,7c0.4,4.1,1,8.3,2,12.3C741.2,498.4,740.8,499,739,498.9z"
                id="path56" />
        <path
                class="st7"
                d="M787.1,529.9c1.3-1.4,1.3-3,0.7-4.8c-5.5-15.9-11-31.8-16.4-47.6c-1.1-3.2-1.3-6.8-3.5-9.7   c-0.9-1.2-0.1-2.3,1-3c4.1-2.7,8.5-4.9,13.3-6c3.4-0.8,6.6,2.3,6.8,6.8c0.3,7.1,1.8,14,3.6,20.9c1.6,6.2,3.6,12.3,6,18.7   c1.6-2.1,2.2-4.2,3.1-6.1c3.8-8.5,7.7-16.8,12.4-24.9c0.7-1.2,1.2-2.4,1.6-3.7c1.4-4.5,2.1-5,6.7-4.9c3.9,2.2,7.4,5,10.3,8.4   c3.3,3.7,2.6,8.6-1.6,11.4c-1.2,0.8-1.6,1.9-2.2,3c-6.5,12.4-12,25.3-17.9,38c-3,6.5-6.2,13-8.5,19.8c-0.6,1.9-0.8,3.7-0.5,5.6   c0.5,3,0,6-1.1,8.8c-1,2.5-2.4,3.1-4.7,1.9c-4.4-2.2-8.6-4.7-12.3-8.1c-3.9-3.6-4.5-6.6-2.4-11.4   C783.3,538.6,785.2,534.3,787.1,529.9z"
                id="path58" />
        <path
                class="st7"
                d="M532.3,521.8c2.3,0.2,3.8,1.6,5.1,3.2c1.3,1.5,2.6,3,3.7,4.7c2.8,4,2.5,6.8-1.1,8.6c-1,0.5-2.1,0.8-3.1,1   c-3.4,0.5-6.2,3-9.4,3.3c-2.9,0.3-5.4,1.8-7.5,3.7c-3.3,3-8.6,4.3-11.5,8.2c-1.3,1.7-2.7,1.6-4.2,0.6c-3.1-2-6.3-4-9.3-6.2   c-2.2-1.5-2.1-3.5-0.9-5.7c7.3-13.5,15-26.8,22.6-40.1c0.3-0.6,0.6-1.1,0.9-1.7c0.8-1.5,1.3-3.2,1.9-4.8c0.3-1.1,0.9-2.1,1.5-3.1   c2.3-4.1,4.5-8.3,6.2-12.7c0.4-1.1,0.9-2.1,0.9-3.3c-0.7-0.4-1.2,0-1.6,0.2c-5.7,3.5-9.9,8.3-13.8,13.5c-0.7,0.9-1.3,1.9-2,2.8   c-1.4,2.2-3,2.8-5.7,2c-3.9-1.2-7.2-3.7-10.7-5.8c-1.2-0.7-1.2-2-0.8-3.2c0.3-0.8,0.6-1.5,0.9-2.3c0.5-1.2,0.9-2.4,1.3-3.7   c0.9-2.8,2.9-4.9,4.9-7c6.4-6.9,13.8-12.6,23.1-15.2c4.7-1.3,9-1.1,12.5,2.8c1.5,1.7,4.1,2,5.4,3.9c1.2,1.1,2.5,2.1,3.7,3.2   c3.1,2.9,3.9,7.5,2.4,11.5c-3,7.6-7.5,14.4-11.5,21.5c-0.9,1.5-1.7,3.1-2.6,4.6c-1.8,3.3-3.3,6.7-4.8,10.1   c-0.2,0.5-0.5,0.9-0.7,1.4c-1.6,2.8-3.2,5.5-5,8.8c2.5-1.4,4.5-2.4,6.4-3.7C530.3,522.3,531.1,521.5,532.3,521.8z"
                id="path60" />
        <path
                class="st8"
                d="M828.3,465.5c3.7,2.4,7.8,4.1,10.8,7.5c3.4,4,3.8,9.9-0.2,13.2c-5.7,4.7-9.4,10.8-13.6,16.6   c3.1-5.7,3.2-13.1,9.4-17c2.4-1.5,3-7.4,1.3-11.1c-0.9-2-2.4-3.6-4.1-4.9c-1.4-1.1-2.7-2.5-4-3.7   C826.6,465.3,827.7,465,828.3,465.5z"
                id="path62" />
        <path
                class="st9"
                d="M546,540.9c-1.7,1.1-2.1,0.9-4.1,1.6c-3.5,1.1-7.1,2.1-10.6,3.2c1.7-1.6,2.3-2.4,4.1-3.1   c0.7-0.3,1.4-0.5,2.1-0.9c0.7-0.4,1.9-0.9,3.5-1.5c2.9-1,4.7-2.6,4.4-6.1c-0.3-2.9-2.5-4.7-3.5-7.4c0.9,0.3,1.4,0.8,1.9,1.5   c0.9,1.1,2,2.1,3.2,2.9c0.6,0.4,1.2,1.1,1.6,2.3c0.7,2,0,3.6-1,5.5c-0.1,0.1-0.1,0.3-0.2,0.4C546.9,540,546.2,540.9,546,540.9z"
                id="path64" />
        <path
                class="st7"
                d="M753.7,410.1c-2.1-1.2-3.2-3.1-4.5-5c-4.6-7.2-9.6-14.1-15.7-20.2c-1.4-1.4-1.1-2.2,0.3-3.2   c3.5-2.8,6.6-5.9,9.5-9.3c6-7,10.9-14.5,9.7-24.5c0.1-3-1.7-5.2-3.2-7.5c-1.4-2-3.8-2.8-5.6-4.4c-1.8-1.1-3.4-2.6-5.2-3.8   c-4.3-2.8-8.3-6.4-13.9-6.3l-0.2,0.1l-0.2-0.1c-0.2,0-0.4,0-0.6,0c-4.8,0-9.3,1.5-13.5,3.7c-4.4,2.3-8.9,2.8-13.7,1.6   c-2.4-0.6-4.9-1.2-7.4-1.2c-1.6,0-3.1,0.3-4.6,0.9c-0.2,0.1-0.5,0.2-0.7,0.4c-0.9,0.7-1.1,1.7-0.5,2.7c0.4,0.7,0.7,1.5,0.9,2.3   c1.2,5.6,1.7,11.4,2,17.1c0.4,9.8,0.7,19.6,0.1,29.4c-0.1,1.4-0.1,2.8,0,4.1c0.2,4.1,0,8.2-0.4,12.4c-0.6,7.4-1,14.9-3.7,21.9   c-0.7,1.8,0.6,2.4,1.7,2.8c5.5,2.1,11.1,3.5,16.9,3.7c1,0,2-0.2,3-0.4c2.8-0.7,4-2.5,3.3-5.2c-0.6-2.3-0.5-4.5,0-6.7   c1.1-5.4,1.9-10.9,2.5-16.4c0.1-0.9-0.2-2.1,0.7-2.5c1-0.4,1.5,0.8,2.1,1.4c6.8,6.7,13.1,13.9,19.1,21.3c1.2,1.5,2.1,3.1,2.6,5   c1.1,4.4,5.3,6,9,3.5c4.9-3.2,8.6-7.6,11.6-12.6C756.7,412.8,755.5,411.2,753.7,410.1z M730.8,350.5c-4,7.5-9.5,13.7-16.5,18.6   c-0.8,0.6-1.8,1.6-2.9,1c-1-0.5-0.5-1.8-0.6-2.8c-0.3-4.3-0.6-8.5-0.9-12.8c-0.1-1.1-0.1-2.1,1-2.9c4.4-3.2,8.8-6.5,13.8-8.8   c1.1-0.5,2.2-0.9,3.4-1.1c3-0.6,4.3,0.5,4.2,3.5C732.3,347.2,731.7,348.9,730.8,350.5z"
                id="path66" />
        <path
                class="st7"
                d="M631,467.8c-0.4-4.1-2.2-7.5-5.9-9.6c-1.6-0.9-3-2-4.2-3.4c-2.7-2.9-5.7-3.2-9.1-1.5c-1.2,0.6-2.5,1.1-3.7,1.8   c-4.4,2.3-8.8,3-13.7,1.7c-3.8-1-7.4,2-6.9,6c0.5,3.6-0.4,6.8-1.1,10.2c-2.9,13.2-6.2,26.3-8.1,39.7c-1,7.2-0.8,14.5-2.9,21.5   c-0.6,2,0.6,3.5,2.2,4.5c3.2,2.1,6.8,3.4,10.5,4.4c4.9,1.4,7.1-0.2,7.8-5.3c0.1-0.8,0-1.6,0-2.4c-1-1.9-1.3-4-1.2-6.1   c0.3-5.1,0.7-10.2,1-15.2c0.1-2.1,0.7-2.4,2.5-1.2c4.1,2.8,6.3,2.7,10.4-0.2c2.6-1.8,4.7-4.2,6.7-6.8c4.8-6.2,8-13.4,11.7-20.2   c0.6-1.6,1.2-3.2,1.7-4.8C630.4,476.6,631.4,472.3,631,467.8z M616.6,468.7c-2.8,11.7-8,22.1-17.2,30.1c-0.3,0.3-0.8,0.4-1.7,0.8   c1.2-8.1,2.6-15.5,4.2-23c0.3-1.6,1.8-2.5,2.9-3.5c2.8-2.5,5.7-4.8,9.1-6.3C615.7,466.1,617.1,466.6,616.6,468.7z"
                id="path68" />
        <path
                class="st7"
                d="M637.1,501.6c-0.3-14.6,0.6-29,3.3-43.4c0.3-1.5,0.5-3.1,0.4-4.7c-0.1-3.1,1.3-4.8,4.7-4.8   c5-0.1,10,0.7,14.6,2.9c2.9,1.3,3.1,2.8,0.9,4.9c-1.5,1.5-2.2,3.2-2.6,5.3c-3.1,15.7-2.6,31.5-1.5,47.3c0.1,1.8,0.8,2.1,2.4,1.5   c4-1.6,8.2-3.1,12.2-4.7c1.8-0.7,3.5-0.9,5.2,0c4.5,2.3,8.7,4.8,12.6,8c1.3,1.1,2.7,2.2,1.9,4.3c-0.9,2.3-2,4.9-4.7,4.7   c-5.9-0.4-10.7,2.4-15.9,4c-2,0.6-3.9,1.5-5.9,2.2c-1,0.4-1.9,0.8-2.3,1.8c-1.2,2.8-3.5,3.2-6.1,2.9c-5.3-0.6-10.6-1.8-15.6-3.5   c-2.9-1-3.6-3.3-3.6-6C637.1,516.7,637.1,509.1,637.1,501.6z"
                id="path70" />
        <path
                class="st8"
                d="M749.3,336c-0.4-0.5-0.9-1-1.5-1.4c-0.9-0.6-0.4-1,0-1.4c1.1-0.7,1.7,0.4,2.6,0.4c1-0.1,1.7,0.1,2.1,1.1   c0.5,1.3,1.9,1.4,2.9,2.2c1,0.8,2.1,2.3,2.2,2.5c4,4.4,2.7,7.7,1.6,13.2c-0.1,0.4-0.2,1.2-0.6,2c-0.3,0.9-0.3,0.8-0.7,1.8   c-0.2,0.8-0.5,1.5-1,2.3c-0.9,1.4-1.3,1.7-2.2,3.2c-0.4,0.7-0.7,1.2-1.1,0.1c-0.2-0.3-0.2-0.6,0-0.8c0.6-0.8,1.2-1.5,1.5-2.4   c1.3-2.9,1.9-5.9,1.7-9c-0.2-2.5-1.1-4.8-2.4-6.9c-0.9-1.4-1.6-2.9-2.7-4.1C751,337.7,750.1,337,749.3,336z"
                id="path72" />
        <path
                class="st10"
                d="M721,451.4c1.4-5,7.6-5.2,13.7-1.3c-2.1-0.1-4.2-0.5-6.4-0.4c-2.6,0.1-4.6,0.7-4.8,3.8   c-0.2,2.7-1.3,5.1-2.9,7.2c-0.4,0.6-0.9,1.3-1.3,1.8c-0.3,0.4-0.7,0.7-1.2,0.9c-1.1,0.5-1.5,0.7-0.8-0.1   C720.1,459.7,720,455.4,721,451.4L721,451.4z"
                id="path74" />
        <path
                class="st7"
                d="M561.6,373.7c-1.6-1.6-3.3-3.1-5.1-4.5c-2.6-2.1-2.6-2.1-0.2-4.5c4.3-4.4,8.2-9,9.6-15.2   c0.9-4.1-0.1-7.5-3.6-10.1c-1.8-1.3-3.5-2.7-4.5-4.7c-2.1-3.9-5.5-5.3-9.7-5.1c-5.1,0.1-10,1.3-15,2.6c-6.6,1.7-12.4,6.2-19.7,5.4   c-1.9-0.2-2.6,1.5-2.9,3.3c-3.5,18.8-4.4,37.7-3.7,56.7c0.3,7.2,0.7,14.4,0.3,21.5c-0.2,3.2-0.4,5.9,1.8,8c0.5,0.5,1,1.2,1.4,1.8   c0.3,0.4,0.6,0.6,1.1,0.8c4.8,2.1,9.1,5.1,14.1,6.7c1.5,0.5,2.9,1.4,4.6,0.7c5-1.2,8.9-4.3,12.9-7.2c5.8-4.3,10.7-9.5,15.4-14.9   c0.8-0.9,1.6-1.7,2.5-2.6c0.7-0.7,1.2-1.6,1.6-2.5c0.4-1,0.8-1.9,1.3-2.8c1.2-2.3,2.3-4.5,3.3-6.9   C571.4,389.8,569.6,381.6,561.6,373.7z M535.8,348.5c2.7-1.1,5.3-2.3,8.2-2.9c0.9-0.2,2.1-0.7,2.8,0.3c0.8,1.1-0.2,2.1-0.8,2.9   c-3.2,4.2-7.3,7.6-11.2,11.1c-1.6,1.5-3.4,2.8-5.1,4.1c-0.5,0.4-1,1.3-1.8,0.8c-0.6-0.4-0.3-1.2-0.2-1.8c0-0.9,0.1-1.8,0.2-2.7   C526.5,353.7,530.4,350.6,535.8,348.5z M551.2,384.6c-0.3,3.6-1.3,7-2.9,10.1c-3.8,7.4-8.2,14.3-15.1,19.4   c-0.4,0.3-0.7,0.6-1.1,0.8c-1.2,0.5-2.4,1.9-3.7,1.1c-1.1-0.6-0.4-2.2-0.4-3.3c-0.1-2.8-0.4-4.6-0.4-7.4l0-1c0-3.3,0.1-6.5,0-9.8   c-0.1-1.6,0.6-2.7,1.9-3.6c6-4,12.5-6.6,19.4-8.3C550.8,382.1,551.4,382.6,551.2,384.6z"
                id="path76" />
        <path
                class="st8"
                d="M502.3,432.9c-1.9-1.6-4.4-2.7-4.9-5.6c-0.1-2.4,0.8-4.6,1.6-6.8c1.4-3.7,1.4-7.5,1.6-11.4   c0-0.6,0.2-1.2,0.4-1.9c0.3-1,0.1-2,0.7-3c0.8,5.7,1,11.4,0.3,17c-0.4,3,0.9,6,3.3,7.7c0,0,0,0,0.1,0c1,0.7,1.9,1.5,2.6,2.6   c0.6,1,1.5,1.8,2.4,2.5c2.9,2.1,5.8,4.2,9.1,6.6c-2.5,0-4-1.2-5.7-1.7c-0.6-0.2-1.1-0.4-1.6-0.7C509,436.6,505.7,434.7,502.3,432.9   z"
                id="path78" />
        <path
                class="st11"
                d="M662.5,289.8c-6.2,6.4-13.5,0-13.5,0c-0.9-0.7-2,1.4-2,1.4c-2.4,6.6-7.7,4.6-8.9,4.3s-1.8,1-1.6,2.2   c0.2,1.2,0.4,3,0.4,3c0,3.1-1.2,4.9-2.6,6c-2,1.5-2.7,4.1-2,6.4l0.4,1.4c4,9.6,1.9,12.9-0.1,14.1c-1.1,0.7-2.2,0.7-2.2,0.7   l-2.9-4.7c0.3-0.1,0.7-0.2,1.1-0.5c2-1.2,4.1-4.5,0.1-14.1l-0.4-1.4c-0.7-2.3,0.1-4.9,2-6.4c1.4-1,2.6-2.9,2.6-6c0,0-0.2-1.8-0.4-3   c-0.2-1.2,0.4-2.5,1.6-2.2c1.1,0.3,6.5,2.3,8.9-4.3c0,0,1.1-2,2-1.4c0,0,7.3,6.4,13.5,0c1.8-1.8,1.8-3.7,1-5.4   C662.9,282.5,665.9,286.3,662.5,289.8z"
                id="path80" />
        <path
                class="st7"
                d="M658.6,285.4c-6.2,6.4-13.5,0-13.5,0c-0.9-0.7-2,1.4-2,1.4c-2.4,6.6-7.7,4.6-8.9,4.3c-1.2-0.3-1.8,1-1.6,2.2   c0.2,1.2,0.4,3,0.4,3c0,3.1-1.2,4.9-2.6,6c-2,1.5-2.7,4.1-2,6.4l0.4,1.4c4,9.6,1.9,12.9-0.1,14.1c-0.4,0.2-0.8,0.4-1.1,0.5   l-0.7-1.2c-0.8-1.3-1.8-2.4-2.9-3.3l-0.6-0.5c-0.1,0-0.1-0.1-0.1-0.1c-1.6-1.4-3.6-2.3-5.7-2.5c0,0,3.6,3.5,6,7.7l-0.3-0.2   l-12.8-4.6l0.2-3l1.2-20.5c0,0,0.4-0.7,1.2-1.9c3.7-5.5,14.7-21.3,21.6-21.8c8.5-0.5,19.3,3.7,19.3,3.7s2.9,1.4,5.6,3.5   C660.4,281.7,660.4,283.6,658.6,285.4z"
                id="path82" />
        <path
                class="st12"
                d="M623.6,374.6c0,0.8-0.1,1.5-0.1,2.1l-14.9-21.2c0,0,0.4-7.8,2.1-14.1c1.6-6.3,0-9,0-9c-5.4-6.2-6.5-16-6.5-16   c-0.5-22.9,7.2-22.3,8.7-22c-2.7,0.5-7.5,3.9-7.1,22c0,0,1.1,9.7,6.5,15.9c0,0,1.6,2.7,0,9c-1.6,6.3-2.1,14.1-2.1,14.1L623.6,374.6   z"
                id="path84" />
        <path
                class="st13"
                d="M625.6,331.8c-0.4,5.1-1.5,31.4-2,42.7l-0.9-1.2c0.5-11.9,1.6-36.6,2-41.5c0.2-2.3-0.8-4.9-2.1-7.2   c-2.4-4.2-6-7.7-6-7.7h-0.1c-2,0-3.9-0.3-3.7-3.7l0.5-5.6l-1.1-13.1c0.2-0.1,0.5-0.1,0.7-0.2c0,0,0,0,0,0c0,0,0.1,0,0.1,0   c0.1,0,0.1,0,0.1,0l1.1,13.2l-0.5,5.6c-0.2,3.4,1.7,3.7,3.7,3.7h0.1c0,0,3.6,3.5,6,7.7C624.8,326.9,625.8,329.5,625.6,331.8z"
                id="path86" />
        <path
                class="st14"
                d="M623.1,364.7c-0.2,3.2-0.3,6.2-0.4,8.6l-12.5-17.8c0,0,0.4-7.8,2.1-14.1c1.6-6.3,0-9,0-9   c-5.4-6.2-6.5-15.9-6.5-15.9c-0.3-16.7,3.7-20.9,6.4-21.9l0.8,9.6c-0.6,3.1-0.9,7.1-0.8,12.3c0,0,1.1,9.7,6.5,15.9c0,0,1.6,2.7,0,9   c-1.6,6.3-2.1,14.1-2.1,14.1L623.1,364.7z"
                id="path88" />
        <path
                class="st15"
                d="M624.7,331.8c-0.3,3.9-1,20.3-1.6,32.9l-6.4-9.1c0,0,0.4-7.8,2.1-14.1c1.6-6.3,0-9,0-9   c-5.4-6.2-6.5-15.9-6.5-15.9c-0.1-5.2,0.2-9.2,0.8-12.3l0.3,3.5l-0.5,5.6c-0.2,3.4,1.7,3.7,3.7,3.7h0.1c0,0,3.6,3.5,6,7.7   C623.9,326.9,624.8,329.5,624.7,331.8z"
                id="path90" />
        <path
                class="st12"
                d="M626.5,315.2c0.3,0.6,1,0.9,1.8,1.1c-1.5,0.2-2.8-0.1-3.3-1.1c-0.9-1.5,0.8-4.1,3.7-5.7c1.8-1,3.7-1.4,5-1.2   c-1.1,0.1-2.3,0.5-3.5,1.2C627.3,311.1,625.6,313.7,626.5,315.2z"
                id="path92" />
        <path
                class="st14"
                d="M632.7,314c0.4-0.2,0.8-0.4,1.1-0.5c-0.6,0.6-1.3,1.1-2.1,1.5c-0.4,0.2-0.8,0.4-1.1,0.5   C631.2,315,631.9,314.5,632.7,314z"
                id="path94" />
        <path
                class="st13"
                d="M635,312.1c-0.2,0.3-0.5,0.7-0.8,1c-0.7,0.2-1.5,0.5-2.3,0.9c-1,0.6-1.9,1.2-2.5,2h0   c-0.4,0.1-0.8,0.2-1.2,0.2c-0.5-0.1-1-0.2-1.3-0.5c0.2,0.1,0.5,0.2,0.8,0.2c0.5-0.1,1-0.2,1.5-0.3h0c0.8-0.9,1.8-1.7,3.1-2.4   C633.2,312.7,634.2,312.3,635,312.1z"
                id="path96" />
        <path
                class="st14"
                d="M635,312.1c-0.9,0.2-1.8,0.6-2.7,1.1c-1.2,0.7-2.3,1.5-3.1,2.4h0c-0.5,0.1-1,0.2-1.5,0.3   c-0.3,0-0.6-0.1-0.8-0.2c-0.2-0.2-0.3-0.3-0.5-0.5c-0.9-1.5,0.8-4.1,3.7-5.7c1.2-0.7,2.4-1.1,3.5-1.2c0.8,0.1,1.4,0.5,1.8,1.1   C635.9,310.1,635.7,311.1,635,312.1z"
                id="path98" />
        <path
                class="st14"
                d="M633.9,313.5c0.7-0.3,1.4-0.5,2.1-0.6c-0.7,0.8-1.6,1.5-2.7,2.1c-1.1,0.6-2.2,1-3.2,1.2   c0.2-0.2,0.4-0.4,0.6-0.6h0c0.6-0.6,1.3-1.1,2.1-1.5C633.1,313.8,633.5,313.6,633.9,313.5C633.9,313.5,633.9,313.5,633.9,313.5z"
                id="path100" />
        <path
                class="st14"
                d="M631.2,320.6c-1.3,0.1-2.4-0.2-2.8-1c-0.5-0.9-0.1-2.1,0.8-3.2c0.3,0,0.5,0,0.8-0.1c-1,1.2-1.4,2.4-0.9,3.3   C629.5,320.1,630.3,320.5,631.2,320.6z"
                id="path102" />
        <path
                class="st14"
                d="M630.6,315.6c-0.2,0.2-0.4,0.4-0.6,0.6c-0.3,0-0.6,0.1-0.8,0.1c0.1-0.1,0.2-0.2,0.2-0.3h0   C629.8,315.9,630.2,315.8,630.6,315.6z"
                id="path104" />
        <path
                class="st14"
                d="M634.3,313.1c-0.1,0.1-0.2,0.3-0.4,0.4c0,0,0,0,0,0c-0.4,0.1-0.8,0.3-1.1,0.5c-0.8,0.5-1.5,1-2.1,1.5h0   c-0.4,0.2-0.8,0.3-1.1,0.4c0.6-0.7,1.5-1.4,2.5-2C632.7,313.6,633.5,313.3,634.3,313.1z"
                id="path106" />
        <path
                class="st14"
                d="M636,312.8C636,312.8,636,312.9,636,312.8c-0.7,0.2-1.4,0.4-2.2,0.7c0.1-0.1,0.3-0.2,0.4-0.4   C634.9,312.9,635.5,312.8,636,312.8z"
                id="path108" />
        <path
                class="st13"
                d="M637.1,317.8C637.1,317.8,637.1,317.8,637.1,317.8c-0.1,0.1-0.3,0.3-0.4,0.4l0,0c-0.5,0.4-1.1,0.8-1.7,1.2   c-0.4,0.2-0.8,0.4-1.2,0.6c0,0,0,0,0,0c-0.5,0.2-1,0.4-1.5,0.5c-0.3,0.1-0.7,0.1-1,0.1c-0.9-0.1-1.6-0.4-2-0.9   c0.4,0.3,0.9,0.5,1.6,0.5c0.3,0,0.6-0.1,1-0.1c0.5-0.1,1-0.2,1.5-0.5c0,0,0,0,0,0c0.4-0.2,0.8-0.4,1.2-0.6c0.6-0.3,1.2-0.8,1.7-1.2   l0,0c0.2-0.1,0.3-0.2,0.4-0.4c0,0,0,0,0,0c1.4-1.4,2-2.9,1.4-3.9c0,0-0.1-0.1-0.1-0.1c0.2,0.1,0.4,0.3,0.5,0.5   C639.1,314.9,638.5,316.4,637.1,317.8z"
                id="path110" />
        <path
                class="st14"
                d="M636.7,317.4C636.7,317.4,636.7,317.4,636.7,317.4c-0.1,0.1-0.3,0.3-0.4,0.4l0,0c-0.5,0.4-1.1,0.8-1.7,1.2   c-0.4,0.2-0.8,0.4-1.2,0.6c0,0,0,0,0,0c-0.5,0.2-1,0.4-1.5,0.5c-0.4,0.1-0.7,0.1-1,0.1c-0.6,0-1.2-0.2-1.6-0.5c0,0-0.1-0.1-0.1-0.1   c-0.5-0.9-0.1-2.1,0.9-3.3c0.2-0.2,0.4-0.4,0.6-0.6h0c0.6-0.6,1.3-1.1,2.1-1.5c0.4-0.2,0.8-0.4,1.1-0.5c0,0,0,0,0,0   c0.7-0.3,1.4-0.5,2.1-0.6c0,0,0,0,0.1-0.1c0.1,0,0.3,0,0.4,0c0.6,0,1.2,0.2,1.6,0.5c0,0,0.1,0.1,0.1,0.1   C638.7,314.5,638.1,316,636.7,317.4z"
                id="path112" />
        <path
                class="st16"
                d="M635.4,301.8c0,2-1.7,3.7-3.7,3.7c-0.2,0-0.3,0-0.5,0c1.8-0.2,3.2-1.8,3.2-3.7c0-1.9-1.4-3.4-3.2-3.7   c0.2,0,0.3,0,0.5,0C633.8,298.1,635.4,299.8,635.4,301.8z"
                id="path114" />
        <path
                class="st13"
                d="M634.5,301.8c0,1.9-1.4,3.4-3.2,3.7c-1.8-0.2-3.2-1.8-3.2-3.7c0-1.9,1.4-3.4,3.2-3.7   C633.1,298.4,634.5,299.9,634.5,301.8z"
                id="path116" />
        <path
                class="st16"
                d="M644.8,291.2c0,2-1.7,3.7-3.7,3.7c-0.2,0-0.3,0-0.5,0c1.8-0.2,3.2-1.8,3.2-3.7c0-1.9-1.4-3.4-3.2-3.7   c0.2,0,0.3,0,0.5,0C643.1,287.5,644.8,289.1,644.8,291.2z"
                id="path118" />
        <ellipse
                class="st13"
                cx="640.6"
                cy="291.2"
                rx="3.2"
                ry="3.7"
                id="ellipse120" />
        <path
                class="st13"
                d="M636.1,289.8l-7.8,8.5c-0.9,1-2.1,1.4-3.4,1.2c0.9-0.1,1.7-0.5,2.4-1.2l7.8-8.5c1.4-1.6,1.3-4.1-0.2-5.5   l-2.6-2.4c-0.6-0.6-1.4-0.9-2.1-1c1.1-0.2,2.2,0.2,3.1,1l2.6,2.4C637.4,285.7,637.6,288.2,636.1,289.8z"
                id="path122" />
        <path
                class="st17"
                d="M620.6,290.7c-1.5,1.6-1.3,4.1,0.2,5.5l2.6,2.4c0.5,0.5,1.2,0.8,1.8,0.9c-0.1,0-0.2,0-0.3,0.1   c-0.8-0.1-1.5-0.4-2.2-1l-2.6-2.4c-1.6-1.5-1.7-3.9-0.2-5.5l7.8-8.5c0.7-0.7,1.5-1.1,2.4-1.2c0.1,0,0.2,0,0.4,0.1   c-0.8,0.2-1.5,0.5-2,1.2L620.6,290.7z"
                id="path124" />
        <path
                class="st13"
                d="M635.3,289.8l-7.8,8.5c-0.6,0.6-1.3,1-2.1,1.2c-0.6-0.1-1.3-0.5-1.8-0.9l-2.6-2.4c-1.6-1.5-1.7-3.9-0.2-5.5   l7.8-8.5c0.6-0.6,1.3-1,2-1.2c0,0,0,0,0,0c0.7,0.1,1.3,0.5,1.8,0.9l2.6,2.4C636.6,285.7,636.7,288.2,635.3,289.8z"
                id="path126" />
        <path
                class="st13"
                d="M639.8,281.9L639.8,281.9c0,0.3-0.1,0.7-0.3,1c-0.4,0.5-1.1,0.7-1.7,0.5c0.3-0.1,0.6-0.3,0.8-0.5   c0.5-0.7,0.4-1.7-0.3-2.2c-0.2-0.1-0.3-0.2-0.5-0.3c0.5-0.2,1-0.1,1.5,0.3c0.2,0.2,0.4,0.4,0.5,0.7v0   C639.7,281.5,639.7,281.7,639.8,281.9z"
                id="path128" />
        <path
                class="st13"
                d="M638.5,282.8c-0.2,0.3-0.5,0.4-0.8,0.5c0,0,0,0,0,0c-0.2-0.1-0.3-0.1-0.5-0.3c-0.7-0.5-0.8-1.5-0.3-2.2   c0.2-0.3,0.5-0.4,0.8-0.5c0.2,0.1,0.3,0.2,0.5,0.3C638.9,281.1,639,282.1,638.5,282.8z"
                id="path130" />
        <path
                class="st13"
                d="M639.8,281.9c-0.1-0.2-0.1-0.4-0.1-0.5C639.8,281.5,639.8,281.7,639.8,281.9z"
                id="path132" />
        <path
                class="st13"
                d="M643,278.3c-0.4,0.5-1.1,0.7-1.8,0.5c0.3-0.1,0.6-0.3,0.8-0.5c0.5-0.7,0.4-1.7-0.3-2.2   c-0.1-0.1-0.3-0.2-0.5-0.3c0.5-0.2,1-0.1,1.5,0.3C643.4,276.6,643.5,277.6,643,278.3z"
                id="path134" />
        <path
                class="st13"
                d="M642,278.3c-0.2,0.3-0.5,0.4-0.8,0.5c-0.2-0.1-0.3-0.1-0.5-0.2c-0.7-0.5-0.8-1.5-0.3-2.2   c0.2-0.3,0.5-0.4,0.8-0.5c0.2,0.1,0.3,0.2,0.5,0.3C642.4,276.6,642.5,277.6,642,278.3z"
                id="path136" />
        <path
                class="st13"
                d="M639.3,277.8L639.3,277.8c0,0.3-0.1,0.7-0.3,1c-0.4,0.5-1.1,0.7-1.7,0.5c0.3-0.1,0.6-0.3,0.8-0.5   c0.5-0.7,0.4-1.7-0.3-2.2c-0.1-0.1-0.3-0.2-0.5-0.2c0.5-0.2,1-0.1,1.4,0.2c0.2,0.2,0.4,0.5,0.5,0.7   C639.2,277.5,639.2,277.7,639.3,277.8z"
                id="path138" />
        <path
                class="st13"
                d="M638,278.8c-0.2,0.3-0.5,0.4-0.8,0.5c0,0,0,0,0,0c-0.2-0.1-0.3-0.2-0.5-0.3c-0.7-0.5-0.8-1.5-0.3-2.2   c0.2-0.2,0.5-0.4,0.8-0.5c0,0,0,0,0,0c0.2,0.1,0.3,0.1,0.5,0.2C638.4,277.1,638.5,278.1,638,278.8z"
                id="path140" />
        <path
                class="st13"
                d="M639.3,277.8c-0.1-0.2-0.1-0.3-0.1-0.5C639.3,277.5,639.3,277.6,639.3,277.8z"
                id="path142" />
        <path
                class="st13"
                d="M643.5,282.3c-0.4,0.5-1.1,0.7-1.7,0.5c0.3-0.1,0.6-0.3,0.8-0.5c0.5-0.7,0.4-1.7-0.3-2.2   c-0.1-0.1-0.3-0.2-0.5-0.3c0.5-0.2,1-0.1,1.4,0.3C643.9,280.6,644,281.6,643.5,282.3z"
                id="path144" />
        <path
                class="st13"
                d="M642.5,282.3c-0.2,0.2-0.5,0.4-0.8,0.5c-0.2-0.1-0.3-0.1-0.5-0.2c-0.7-0.5-0.8-1.5-0.3-2.2   c0.2-0.3,0.5-0.4,0.8-0.5c0,0,0,0,0,0c0.2,0.1,0.3,0.2,0.5,0.3C642.9,280.6,643,281.6,642.5,282.3z"
                id="path146" />
        <path
                class="st13"
                d="M636.1,294.9c0,0.8-0.7,1.5-1.5,1.5c-0.2,0-0.3,0-0.5-0.1c0.6-0.2,1-0.8,1-1.4c0-0.7-0.4-1.2-1-1.4   c0.1-0.1,0.3-0.1,0.5-0.1C635.4,293.4,636.1,294.1,636.1,294.9z"
                id="path148" />
        <path
                class="st13"
                d="M635.1,294.9c0,0.6-0.4,1.2-1,1.4c-0.6-0.2-1-0.8-1-1.4c0-0.7,0.4-1.2,1-1.4   C634.7,293.7,635.1,294.3,635.1,294.9z"
                id="path150" />
        <path
                class="st13"
                d="M621.8,307.2l-1.3,1.6c-0.1,0.1-0.2,0.1-0.3,0l-0.4-0.3l1.1-1.3c0.1-0.1,0.1-0.2,0-0.3l-1.3-1.1l0.4-0.5   l1.9,1.6C621.9,307,621.9,307.1,621.8,307.2z"
                id="path152" />
        <path
                class="st13"
                d="M620.9,307.2l-1.1,1.3l-1.5-1.2l-0.6-0.5l-1.3-1.1l-0.6-0.5l-1.3-1.1c-0.1-0.1-0.1-0.2,0-0.3l1.1-1.3l0.3-0.3   c0.1-0.1,0.2-0.1,0.3,0l1.3,1.1l0.6,0.5l1.3,1.1l0.6,0.5l-0.4,0.5l1.3,1.1C620.9,307,620.9,307.1,620.9,307.2z"
                id="path154" />
        <path
                class="st13"
                d="M621.5,303.4l-1.6,1.9l-0.6-0.5l1.2-1.4c0.1-0.1,0.1-0.2,0-0.3l-1.2-1l0.3-0.3c0.1-0.1,0.2-0.1,0.3,0l1.6,1.3   C621.6,303.2,621.6,303.3,621.5,303.4z"
                id="path156" />
        <path
                class="st13"
                d="M620.5,303.4l-1.2,1.4l0.6,0.5l-0.4,0.5l-1.2,1.4l-0.4,0.5l-1.2,1.4c-0.1,0.1-0.2,0.1-0.3,0l-0.4-0.3l-1.2-1   c-0.1-0.1-0.1-0.2,0-0.3l1.2-1.4l0.4-0.5l1.2-1.4l0.4-0.5l1.3-1.5l1.2,1C620.6,303.2,620.6,303.3,620.5,303.4z"
                id="path158" />
        <g
                id="g200">
		<path
                class="st0"
                d="M666,385.7c-2.2,20.7-12.4,38.1-26.3,46.5c2.8-5.5,1.9-11.6-2-14.5c9.3-8.3,16.2-20.9,19-35.8    c2.2,2.8,5.4,4.4,8.7,4C665.6,385.8,665.8,385.8,666,385.7z"
                id="path160" />
            <path
                    class="st18"
                    d="M666,385.7c-2.2,20.7-12.4,38.1-26.3,46.5c2.8-5.5,1.9-11.6-2-14.5c9.3-8.3,16.2-20.9,19-35.8    c2.2,2.8,5.4,4.4,8.7,4C665.6,385.8,665.8,385.8,666,385.7z"
                    id="path162" />
            <path
                    class="st0"
                    d="M664.7,360.7c-0.9-0.2-1.9-0.2-2.8-0.1c-1.5,0.2-2.9,0.8-4.1,1.8c0-0.2,0-0.4,0-0.5c0-0.3,0-0.6-0.1-0.9    c0-0.6-0.1-1.2-0.2-1.8c-0.1-0.6-0.1-1.3-0.2-1.9c-0.1-0.7-0.2-1.5-0.3-2.2c-0.1-0.7-0.2-1.4-0.3-2c-0.1-0.7-0.3-1.3-0.4-2    c-0.3-1.5-0.7-2.9-1.1-4.3l2.5-5C660.8,347.3,663.3,353.7,664.7,360.7z"
                    id="path164" />
            <path
                    class="st18"
                    d="M664.7,360.7c-0.9-0.2-1.9-0.2-2.8-0.1c-1.5,0.2-2.9,0.8-4.1,1.8c0-0.2,0-0.4,0-0.5c0-0.3,0-0.6-0.1-0.9    c0-0.6-0.1-1.2-0.2-1.8c-0.1-0.6-0.1-1.3-0.2-1.9c-0.1-0.7-0.2-1.5-0.3-2.2c-0.1-0.7-0.2-1.4-0.3-2c-0.1-0.7-0.3-1.3-0.4-2    c-0.3-1.5-0.7-2.9-1.1-4.3l2.5-5C660.8,347.3,663.3,353.7,664.7,360.7z"
                    id="path166" />
            <path
                    class="st0"
                    d="M624,437.4c-1,0.1-2.1,0.1-3.1,0.1c-13.4,0-25.5-7.7-33.9-19.9c7.3,6.4,16,10.2,25.4,10.2c1,0,2.1,0,3.1-0.1    c2-0.2,3.9-0.5,5.8-1C620.3,430.9,621.3,435.1,624,437.4z"
                    id="path168" />
            <path
                    class="st18"
                    d="M624,437.4c-1,0.1-2.1,0.1-3.1,0.1c-13.4,0-25.5-7.7-33.9-19.9c7.3,6.4,16,10.2,25.4,10.2c1,0,2.1,0,3.1-0.1    c2-0.2,3.9-0.5,5.8-1C620.3,430.9,621.3,435.1,624,437.4z"
                    id="path170" />
            <path
                    class="st0"
                    d="M658,367.6c0,2.9-0.1,5.7-0.4,8.4c-0.2,2-0.5,4-0.8,5.9c-2.7,14.9-9.6,27.5-19,35.8c-2,1.8-4.2,3.4-6.4,4.8    c-3.2,1.9-6.5,3.4-10,4.3c-1.9,0.5-3.8,0.8-5.8,1c-1,0.1-2.1,0.1-3.1,0.1c-9.4,0-18.1-3.8-25.4-10.2c-0.3-0.5-0.7-1-1-1.5    c-0.3-0.5-0.6-0.9-0.9-1.4c-0.3-0.5-0.6-0.9-0.8-1.4c-0.5-0.8-1-1.7-1.4-2.6c-0.1-0.3-0.3-0.6-0.4-0.9c-0.2-0.4-0.4-0.8-0.6-1.2    c-0.1-0.3-0.3-0.6-0.4-0.9c-0.1-0.3-0.2-0.5-0.4-0.8c-0.2-0.5-0.4-0.9-0.6-1.4c-0.2-0.5-0.4-1.1-0.6-1.7c-0.1-0.3-0.2-0.5-0.3-0.8    c-0.2-0.5-0.4-1-0.5-1.5c-0.1-0.4-0.3-0.9-0.4-1.3c-0.2-0.6-0.4-1.3-0.6-1.9c-0.2-0.5-0.3-1.1-0.5-1.7c-0.1-0.2-0.1-0.4-0.2-0.6    c-0.1-0.5-0.3-1.1-0.4-1.6c-0.2-0.7-0.3-1.3-0.4-2c-0.1-0.3-0.1-0.7-0.2-1c-0.1-0.5-0.2-0.9-0.2-1.4c-0.7-3.9-1-8-1-12.2    c0-0.2,0-0.4,0-0.6c0-3.7,0.2-7.3,0.8-10.8c0.5-4.1,1.4-8,2.6-11.7c0.8-2.5,1.6-4.9,2.6-7.2l1.8,3.9l2.2,4.9l4.2-5.1l0.1,0.6    l1.5,7.2l2.9,13.8l0.9,4.4l0.9-4.5l3.1-15.3l0.2-0.9l0.7,1.6v0l2.2,5.3v0l1.1,2.6l6.2-15.6l2.5-6.3l6.3,16.9l6,16.1l1.9-5l2.6-6.8    l9.2-23.8l0.7-1.8l4.1,6l5.6,8.3l2.1,3.1l3.1-6.2l2.1-4.3c0.4,1.4,0.8,2.9,1.1,4.3c0.1,0.7,0.3,1.3,0.4,2c0.1,0.7,0.2,1.3,0.3,2    c0.1,0.7,0.2,1.5,0.3,2.2c0.1,0.6,0.2,1.3,0.2,1.9c0.1,0.6,0.1,1.2,0.2,1.8c0,0.3,0.1,0.6,0.1,0.9c0,0.2,0,0.4,0,0.5    c0,0.1,0,0.2,0,0.3c0,0.3,0,0.6,0,1C658,364.9,658,366.2,658,367.6z"
                    id="path172" />
            <path
                    class="st14"
                    d="M587.1,416c-0.3,0.1-0.7,0.1-1.1,0.2c-4.7-7.4-8.1-16.3-9.7-26.2c1.1-1.2,2.5-2.1,4-2.5    c5.5-1.3,11.5,4,13.3,11.8C595.6,407.3,592.6,414.7,587.1,416z"
                    id="path174" />

            <ellipse
                    transform="matrix(0.2032 -0.9791 0.9791 0.2032 114.3792 889.4738)"
                    class="st14"
                    cx="603.7"
                    cy="374.5"
                    rx="8.2"
                    ry="6.5"
                    id="ellipse176" />

            <ellipse
                    transform="matrix(0.1327 -0.9912 0.9912 0.1327 146.6732 956.9589)"
                    class="st14"
                    cx="620.1"
                    cy="394.7"
                    rx="6"
                    ry="4.3"
                    id="ellipse178" />
            <ellipse
                    class="st14"
                    cx="639.1"
                    cy="394.3"
                    rx="2.2"
                    ry="2.8"
                    id="ellipse180" />

            <ellipse
                    transform="matrix(0.9958 -9.150094e-02 9.150094e-02 0.9958 -31.9595 59.7315)"
                    class="st14"
                    cx="635.4"
                    cy="378.4"
                    rx="2.8"
                    ry="4"
                    id="ellipse182" />
            <path
                    class="st14"
                    d="M666.5,377.3c0,2.9-0.1,5.7-0.4,8.5c-0.2,0.1-0.4,0.1-0.7,0.1c-3.2,0.5-6.4-1.1-8.7-4    c0.3-1.9,0.6-3.9,0.8-5.9c0.3-2.8,0.4-5.6,0.4-8.4c0-1.3,0-2.6-0.1-3.9c0-0.3,0-0.7,0-1c0-0.1,0-0.2,0-0.3    c1.2-0.9,2.6-1.6,4.1-1.8c1-0.1,1.9-0.1,2.8,0.1C665.9,366,666.5,371.5,666.5,377.3z"
                    id="path184" />
            <path
                    class="st18"
                    d="M666.5,377.3c0,2.9-0.1,5.7-0.4,8.5c-0.2,0.1-0.4,0.1-0.7,0.1c-3.2,0.5-6.4-1.1-8.7-4    c0.3-1.9,0.6-3.9,0.8-5.9c0.3-2.8,0.4-5.6,0.4-8.4c0-1.3,0-2.6-0.1-3.9c0-0.3,0-0.7,0-1c0-0.1,0-0.2,0-0.3    c1.2-0.9,2.6-1.6,4.1-1.8c1-0.1,1.9-0.1,2.8,0.1C665.9,366,666.5,371.5,666.5,377.3z"
                    id="path186" />
            <path
                    class="st14"
                    d="M658,367.6c0,2.9-0.1,5.7-0.4,8.4c-0.2,2-0.5,4-0.8,5.9c-1.3-1.6-2.3-3.6-2.8-5.9c-0.1-0.5-0.2-0.9-0.3-1.4    c-0.7-5.1,1.1-9.8,4.2-12.2c0,0.1,0,0.2,0,0.3c0,0.3,0,0.6,0,1C658,364.9,658,366.2,658,367.6z"
                    id="path188" />
            <path
                    class="st14"
                    d="M584,361.8c-0.5,3.7-3,6.3-5.6,6c-0.9-0.1-1.7-0.6-2.3-1.3c0.5-4.1,1.4-8,2.6-11.7c0.5-0.2,1-0.2,1.6-0.1    C582.7,354.9,584.4,358.1,584,361.8z"
                    id="path190" />
            <ellipse
                    class="st14"
                    cx="604.4"
                    cy="418.2"
                    rx="2.2"
                    ry="2.7"
                    id="ellipse192" />
            <path
                    class="st14"
                    d="M639.8,432.2c-4.9,2.9-10.2,4.8-15.8,5.3c-2.7-2.4-3.7-6.5-2.7-10.7c3.5-0.9,6.9-2.3,10-4.3    c2.2-1.4,4.4-3,6.4-4.8C641.7,420.5,642.6,426.7,639.8,432.2z"
                    id="path194" />
            <path
                    class="st18"
                    d="M639.8,432.2c-4.9,2.9-10.2,4.8-15.8,5.3c-2.7-2.4-3.7-6.5-2.7-10.7c3.5-0.9,6.9-2.3,10-4.3    c2.2-1.4,4.4-3,6.4-4.8C641.7,420.5,642.6,426.7,639.8,432.2z"
                    id="path196" />
            <path
                    class="st14"
                    d="M637.8,417.7c-2,1.8-4.2,3.4-6.4,4.8c-3.2,1.9-6.5,3.4-10,4.3c0.3-1.2,0.7-2.4,1.4-3.5c2.3-4.3,6.4-7,10.3-7    c1.4,0,2.7,0.3,3.9,0.9C637.2,417.3,637.5,417.5,637.8,417.7z"
                    id="path198" />
	</g>
        <path
                class="st13"
                d="M623.9,377.2l6.6-17.8c0,0-1.9-19.7-1-24.4c0.9-4.7,1-5.9,1-5.9l-3.7-5.8c-0.8-1.3-1.8-2.4-2.9-3.3l-0.6-0.5   c-1.6-1.5-3.7-2.4-5.9-2.6c0,0,3.6,3.5,6,7.7c1.3,2.3,2.3,4.9,2.1,7.2c-0.3,3.9-1,20.7-1.6,33.3l-12.4-20.8l11.9,31.9   c0,0.2,0,0.3,0,0.5L623.9,377.2L623.9,377.2L623.9,377.2L623.9,377.2z"
                id="path202" />
        <path
                class="st5"
                d="M626.8,312.6l-2.5,3.8c-0.9-0.1-1.4-0.2-1.4-0.2l2.7-4.2C625.6,312,626.1,312.2,626.8,312.6z"
                id="path204" />
        <path
                class="st6"
                d="M629,316.1c-1.9,0.5-3.6,0.4-4.7,0.3l2.5-3.8C628.5,313.6,631.5,315.5,629,316.1z"
                id="path206" />
        <path
                class="st5"
                d="M630,316.3c-1.4,0.8-2.6,5.5-2.6,5.5c-0.3,0-0.6,0-0.8,0c0,0,1.2-4.8,2.6-5.5   C629.2,316.3,629.5,316.3,630,316.3z"
                id="path208" />
        <path
                class="st6"
                d="M632.7,320.3c0,0-3.4,1.3-5.3,1.5c0,0,1.2-4.7,2.6-5.5C631.1,316.4,633.1,317.1,632.7,320.3z"
                id="path210" />
        <path
                class="st14"
                d="M632.8,324.9c-1.2,0-2.2-0.5-2.5-1.2c-0.3-0.9,0.2-1.9,1.2-2.9c0.4,0,0.8,0,1.2-0.1c-1.2,1-1.8,2.1-1.4,3   C631.6,324.4,632.1,324.8,632.8,324.9z"
                id="path212" />
        <path
                class="st13"
                d="M636,324.3c-1.1,0.5-2.2,0.6-3.2,0.6c-0.6-0.1-1-0.4-1.3-0.8c0.2,0.2,0.5,0.3,0.9,0.4c0.9,0,2.1-0.2,3.2-0.6   c2.6-1,4.2-3,3.7-4.3c0-0.1-0.1-0.2-0.2-0.3c0.2,0.2,0.4,0.4,0.5,0.7C640.2,321.4,638.6,323.3,636,324.3z"
                id="path214" />
        <path
                class="st14"
                d="M635.6,324c-1.1,0.4-2.2,0.6-3.2,0.6c-0.3-0.1-0.7-0.2-0.9-0.4c-0.1-0.1-0.1-0.2-0.2-0.3   c-0.4-0.9,0.2-2.1,1.4-3c-0.3,0-0.6,0.1-0.9,0.1c-0.1,0-0.2,0-0.4,0c0.1,0,0.1-0.1,0.1-0.1c0.1-0.1,0.2-0.2,0.4-0.3   c0.6-0.4,1.2-0.8,1.9-1.1c1-0.4,2-0.6,2.8-0.6c0,0,0,0,0,0c0.3,0,0.5,0,0.8,0c0.2,0,0.4,0.1,0.5,0.1c0.4,0.1,0.7,0.2,0.9,0.4l0,0   c0.1,0.1,0.1,0.2,0.2,0.3C639.8,321,638.2,322.9,635.6,324z"
                id="path216" />
        <path
                class="st5"
                d="M632.2,321.3c-1.3,0.9-2,3.4-2.2,4.1l-1.3,0.2c0,0,0.9-4.1,2.9-4.6C631.5,320.9,631.8,321,632.2,321.3z"
                id="path218" />
        <path
                class="st6"
                d="M633.9,324.9l-4,0.5c0.2-0.7,0.9-3.2,2.2-4.1C633,321.7,634.3,322.8,633.9,324.9z"
                id="path220" />
</g>
</svg>
